<?xml version="1.0" encoding="UTF-8"?>
<svg width="24px" height="24px" viewBox="0 0 24 24" version="1.1" xmlns="http://www.w3.org/2000/svg" xmlns:xlink="http://www.w3.org/1999/xlink">
    <!-- Generator: Sketch 63.1 (92452) - https://sketch.com -->
    <title>Shape</title>
    <desc>Created with Sketch.</desc>
    <g id="Designs" stroke="none" stroke-width="1" fill="none" fill-rule="evenodd">
        <g id="Home---Tablet---Light" transform="translate(-63.000000, -148.000000)" fill="#FFFFFF" fill-rule="nonzero">
            <g id="Group-2" transform="translate(39.000000, 120.000000)">
                <g id="Group-7" transform="translate(24.000000, 28.000000)">
                    <g id="003-search-2">
                        <g id="003-search">
                            <path d="M17.1123209,15.0588449 L16.0239786,15.0588449 L15.6474866,14.6823529 C16.9891123,13.1285775 17.7967701,11.1093048 17.7967701,8.89841711 C17.7967701,3.98374332 13.8130267,0 8.89841711,0 C3.98380749,0 0,3.98374332 0,8.89841711 C0,13.8130909 3.98374332,17.7968342 8.89841711,17.7968342 C11.1093048,17.7968342 13.1285775,16.9891123 14.6823529,15.6543529 L15.0588449,16.0308449 L15.0588449,17.1123209 L21.9037219,23.9435294 L23.9435294,21.9037219 L17.1123209,15.0588449 Z M8.89841711,15.0588449 C5.49651337,15.0588449 2.7379893,12.3003209 2.7379893,8.89841711 C2.7379893,5.49651337 5.49651337,2.7379893 8.89841711,2.7379893 C12.3003209,2.7379893 15.0588449,5.49651337 15.0588449,8.89841711 C15.0588449,12.3003209 12.3003209,15.0588449 8.89841711,15.0588449 Z" id="Shape"></path>
                        </g>
                    </g>
                </g>
            </g>
        </g>
    </g>
</svg>