<?xml version="1.0" encoding="UTF-8"?>
<svg width="20px" height="20px" viewBox="0 0 20 20" version="1.1" xmlns="http://www.w3.org/2000/svg" xmlns:xlink="http://www.w3.org/1999/xlink">
    <!-- Generator: Sketch 63.1 (92452) - https://sketch.com -->
    <title>Path</title>
    <desc>Created with Sketch.</desc>
    <g id="Designs" stroke="none" stroke-width="1" fill="none" fill-rule="evenodd">
        <g id="Home---Mobile---Dark" transform="translate(-243.000000, -126.000000)" fill="#FFFFFF" fill-rule="nonzero">
            <g id="Group-2" transform="translate(24.000000, 96.000000)">
                <path d="M238.107586,29.9999985 L219.860224,29.9999985 C219.538187,29.9994051 219.243138,30.1750873 219.09602,30.4548699 C218.946872,30.7384201 218.973049,31.0798699 219.163593,31.3388325 L225.848658,40.5411247 C225.85089,40.5442973 225.853325,40.5472716 225.855557,40.5504442 C226.098455,40.8708756 226.229948,41.2591212 226.230557,41.6578759 L226.230557,49.1604537 C226.229137,49.3825349 226.318422,49.5960898 226.478528,49.7537278 C226.638836,49.9111675 226.856775,49.9999985 227.084048,49.9999985 C227.19951,49.9999985 227.313958,49.9773953 227.420695,49.9339705 L231.177189,48.5344622 C231.513634,48.4339309 231.737051,48.123612 231.737051,47.7500396 L231.737051,41.6578759 C231.73766,41.2591212 231.869153,40.8708756 232.111848,40.5504442 C232.11408,40.5472716 232.116515,40.5442973 232.118747,40.5411247 L238.804015,31.3386342 C238.994559,31.0798699 239.020736,30.7386183 238.871588,30.4550682 C238.724672,30.1750873 238.429421,29.9994051 238.107586,29.9999985 Z" id="Path"></path>
            </g>
        </g>
    </g>
</svg>