<?xml version="1.0" encoding="UTF-8"?>
<svg width="2000px" height="160px" viewBox="0 0 2000 160" version="1.1" xmlns="http://www.w3.org/2000/svg" xmlns:xlink="http://www.w3.org/1999/xlink">
    <!-- Generator: Sketch 63.1 (92452) - https://sketch.com -->
    <title>Group 10</title>
    <desc>Created with Sketch.</desc>
    <defs>
        <path d="M0,0.456012847 L2000,0.456012847 L2000,60.4560128 C2000,115.684488 1955.22847,160.456013 1900,160.456013 L0,160.456013 L0,160.456013 L0,0.456012847 Z" id="path-1"></path>
    </defs>
    <g id="Designs" stroke="none" stroke-width="1" fill="none" fill-rule="evenodd">
        <g id="Group-10" transform="translate(0.000000, -1.000000)">
            <g id="Triangle" transform="translate(0.000000, 0.543987)">
                <mask id="mask-2" fill="white">
                    <use xlink:href="#path-1"></use>
                </mask>
                <use id="Mask" fill="#5964E0" transform="translate(1000.000000, 80.456013) scale(-1, 1) translate(-1000.000000, -80.456013) " xlink:href="#path-1"></use>
                <path d="M1665.1603,-228.307162 L1907.70735,111.475466 C1920.86315,129.905354 1916.58767,155.510618 1898.15778,168.666425 C1891.86075,173.161434 1884.42039,175.783007 1876.69644,176.228221 L1336.32299,207.375776 C1313.71684,208.678812 1294.33461,191.409225 1293.03158,168.803073 C1292.44768,158.673087 1295.64085,148.68643 1301.99357,140.774383 L1599.81997,-230.155799 C1613.99675,-247.812381 1639.80279,-250.633316 1657.45937,-236.456535 C1660.38742,-234.105549 1662.97862,-231.363456 1665.1603,-228.307162 Z" fill="#FFFFFF" opacity="0.0813802083" mask="url(#mask-2)" transform="translate(1597.567414, -29.841245) rotate(12.000000) translate(-1597.567414, 29.841245) "></path>
                <path d="M529.019125,-440.05269 L841.060652,-10.0409961 C854.359661,8.28582508 850.283814,33.9236257 831.956992,47.2226344 C823.314203,53.4943461 812.56551,56.146591 801.997302,54.6152023 L305.578952,-17.3184117 C283.169329,-20.5656833 267.635173,-41.3647065 270.882445,-63.7743301 C271.533837,-68.2696319 272.927696,-72.6254452 275.007069,-76.6637938 L459.383891,-434.741874 C469.749817,-454.873531 494.472992,-462.790219 514.604649,-452.424293 C520.311706,-449.485691 525.249033,-445.248101 529.019125,-440.05269 Z" id="Triangle-Copy" fill="#FFFFFF" opacity="0.0813802083" mask="url(#mask-2)" transform="translate(573.388268, -212.720909) rotate(-35.000000) translate(-573.388268, 212.720909) "></path>
                <path d="M76.2413471,-45.0526905 L388.282874,384.959004 C401.581883,403.285825 397.506036,428.923626 379.179215,442.222634 C370.536425,448.494346 359.787732,451.146591 349.219524,449.615202 L-147.198825,377.681588 C-169.608449,374.434317 -185.142605,353.635294 -181.895333,331.22567 C-181.24394,326.730368 -179.850081,322.374555 -177.770708,318.336206 L6.60611362,-39.7418741 C16.9720394,-59.8735305 41.6952147,-67.7902193 61.826871,-57.4242935 C67.5339279,-54.4856913 72.471255,-50.2481006 76.2413471,-45.0526905 Z" id="Triangle-Copy-2" fill="#FFFFFF" opacity="0.0813802083" mask="url(#mask-2)" transform="translate(120.610490, 182.279091) rotate(-35.000000) translate(-120.610490, -182.279091) "></path>
            </g>
        </g>
    </g>
</svg>