<?xml version="1.0" encoding="UTF-8"?>
<svg width="20px" height="19px" viewBox="0 0 20 19" version="1.1" xmlns="http://www.w3.org/2000/svg" xmlns:xlink="http://www.w3.org/1999/xlink">
    <!-- Generator: Sketch 63.1 (92452) - https://sketch.com -->
    <title>Combined Shape</title>
    <desc>Created with Sketch.</desc>
    <g id="Designs" stroke="none" stroke-width="1" fill="none" fill-rule="evenodd">
        <g id="Home---Desktop---Light---Active" transform="translate(-1163.000000, -47.000000)" fill="#FFFFFF" fill-rule="nonzero">
            <g id="Group-15" transform="translate(1163.000000, 45.000000)">
                <path d="M10,17.6354167 C10.3296703,17.6354167 10.6122449,17.9299903 10.6122449,18.2736596 L10.6122449,20.1638404 C10.6122449,20.5075097 10.3296703,20.8020833 10,20.8020833 C9.67032967,20.8020833 9.3877551,20.5075097 9.3877551,20.1638404 L9.3877551,18.2736596 C9.3877551,17.9299903 9.67032967,17.6354167 10,17.6354167 Z M5.51212938,15.8522995 C5.78167116,16.1136989 5.78167116,16.5319379 5.51212938,16.7933373 L4.0296496,18.2310338 C3.76010782,18.4924332 3.32884097,18.4924332 3.05929919,18.2310338 C2.78975741,17.9696344 2.78975741,17.5513954 3.05929919,17.2899961 L4.54177898,15.8522995 C4.81132075,15.5909002 5.2425876,15.5909002 5.51212938,15.8522995 Z M15.458221,15.8522995 L16.9407008,17.2899961 C17.2102426,17.5513954 17.2102426,17.9696344 16.9407008,18.2310338 C16.671159,18.4924332 16.2398922,18.4924332 15.9703504,18.2310338 L14.4878706,16.7933373 C14.2183288,16.5319379 14.2183288,16.1136989 14.4878706,15.8522995 C14.7304582,15.5909002 15.1617251,15.5909002 15.458221,15.8522995 Z M10,6.55208333 C11.396348,6.55208333 12.6852846,7.07708333 13.5982814,7.95208333 C14.5112782,8.80208333 15.1020408,10.0020833 15.1020408,11.3020833 C15.1020408,12.6020833 14.5112782,13.8020833 13.5982814,14.6520833 C12.6852846,15.5020833 11.396348,16.0520833 10,16.0520833 C8.60365199,16.0520833 7.31471536,15.5270833 6.40171858,14.6520833 C5.4887218,13.8020833 4.89795918,12.6020833 4.89795918,11.3020833 C4.89795918,10.0020833 5.46186896,8.80208333 6.40171858,7.95208333 C7.31471536,7.10208333 8.60365199,6.55208333 10,6.55208333 Z M2.60718241,10.90625 C2.96155672,10.90625 3.26530612,11.1802885 3.26530612,11.5 C3.26530612,11.8197115 2.96155672,12.09375 2.60718241,12.09375 L0.658123715,12.09375 C0.303749407,12.09375 -5.68434189e-14,11.8197115 -5.68434189e-14,11.5 C-5.68434189e-14,11.1802885 0.303749407,10.90625 0.658123715,10.90625 L2.60718241,10.90625 Z M19.3418763,10.90625 C19.6962506,10.90625 20,11.1802885 20,11.5 C20,11.8197115 19.6962506,12.09375 19.3418763,12.09375 L17.3928176,12.09375 C17.0384433,12.09375 16.7346939,11.8197115 16.7346939,11.5 C16.7346939,11.1802885 17.0384433,10.90625 17.3928176,10.90625 L19.3418763,10.90625 Z M4.0296496,4.76896619 L5.51212938,6.20666274 C5.78167116,6.46806211 5.78167116,6.8863011 5.51212938,7.14770047 C5.26954178,7.40909984 4.83827493,7.40909984 4.54177898,7.14770047 L3.05929919,5.71000393 C2.78975741,5.44860456 2.78975741,5.03036557 3.05929919,4.76896619 C3.32884097,4.50756682 3.76010782,4.50756682 4.0296496,4.76896619 Z M16.9407008,4.76896619 C17.2102426,5.03036557 17.2102426,5.44860456 16.9407008,5.71000393 L15.458221,7.14770047 C15.1886792,7.40909984 14.7574124,7.40909984 14.4878706,7.14770047 C14.2183288,6.8863011 14.2183288,6.46806211 14.4878706,6.20666274 L15.9703504,4.76896619 C16.2398922,4.50756682 16.671159,4.50756682 16.9407008,4.76896619 Z M10,2.19791667 C10.3296703,2.19791667 10.6122449,2.49249031 10.6122449,2.83615956 L10.6122449,4.72634044 C10.6122449,5.07000969 10.3296703,5.36458333 10,5.36458333 C9.67032967,5.36458333 9.3877551,5.07000969 9.3877551,4.72634044 L9.3877551,2.83615956 C9.3877551,2.49249031 9.67032967,2.19791667 10,2.19791667 Z" id="Combined-Shape"></path>
            </g>
        </g>
    </g>
</svg>