<?xml version="1.0" encoding="UTF-8"?>
<svg width="12px" height="12px" viewBox="0 0 12 12" version="1.1" xmlns="http://www.w3.org/2000/svg" xmlns:xlink="http://www.w3.org/1999/xlink">
    <!-- Generator: Sketch 63.1 (92452) - https://sketch.com -->
    <title>Combined Shape</title>
    <desc>Created with Sketch.</desc>
    <g id="Designs" stroke="none" stroke-width="1" fill="none" fill-rule="evenodd">
        <g id="Home---Desktop---Light" transform="translate(-1263.000000, -51.000000)" fill="#FFFFFF" fill-rule="nonzero">
            <g id="Group-15" transform="translate(1163.000000, 45.000000)">
                <path d="M106,6 C107.516485,6 108.925241,6.56557624 109.977549,7.52262541 C109.393052,7.188305 108.71446,7 108,7 C106.905263,7 105.894737,7.46315789 105.178947,8.17894737 C104.442105,8.89473684 104,9.90526316 104,11 C104,12.0947368 104.463158,13.1052632 105.178947,13.8210526 C105.894737,14.5578947 106.905263,15 108,15 C109.094737,15 110.105263,14.5368421 110.821053,13.8210526 C111.437032,13.2050736 111.865921,12.3708236 111.973554,11.4524707 C111.991241,11.632839 112,11.8156233 112,12 C112,13.6421053 111.305263,15.1578947 110.231579,16.2315789 C109.157895,17.3052632 107.642105,18 106,18 C104.357895,18 102.842105,17.3368421 101.768421,16.2315789 C100.694737,15.1578947 100,13.6421053 100,12 C100,10.3578947 100.663158,8.84210526 101.768421,7.76842105 C102.842105,6.69473684 104.357895,6 106,6 Z" id="Combined-Shape" transform="translate(106.000000, 12.000000) scale(-1, 1) translate(-106.000000, -12.000000) "></path>
            </g>
        </g>
    </g>
</svg>